<mxfile host="app.diagrams.net" modified="2023-10-18T17:49:46.601Z" agent="Mozilla/5.0 (Windows NT 10.0; Win64; x64) AppleWebKit/537.36 (KHTML, like Gecko) Chrome/118.0.0.0 Safari/537.36" etag="tzHpqdz6F_6jNet0f6ds" version="22.0.4" type="device">
  <diagram name="Page-1" id="DHNxPrXcLFRBJ2Ftmkre">
    <mxGraphModel dx="4870" dy="2563" grid="1" gridSize="10" guides="1" tooltips="1" connect="1" arrows="1" fold="1" page="1" pageScale="1" pageWidth="1654" pageHeight="1169" math="0" shadow="0">
      <root>
        <mxCell id="0" />
        <mxCell id="1" parent="0" />
        <mxCell id="zmcDTXjt6zu2heIcuXkd-6" value="&lt;p style=&quot;margin:0px;margin-top:4px;text-align:center;&quot;&gt;&lt;i&gt;&amp;lt;&amp;lt;Interface&amp;gt;&amp;gt;&lt;/i&gt;&lt;br&gt;&lt;b&gt;Message&lt;/b&gt;&lt;/p&gt;&lt;hr size=&quot;1&quot;&gt;&lt;p style=&quot;margin:0px;margin-left:4px;&quot;&gt;&lt;/p&gt;&lt;p style=&quot;margin:0px;margin-left:4px;&quot;&gt;+ GetContent(): GenericContent&lt;br&gt;+ GetMessageType() MessageType&lt;/p&gt;" style="verticalAlign=top;align=left;overflow=fill;fontSize=12;fontFamily=Helvetica;html=1;whiteSpace=wrap;" vertex="1" parent="1">
          <mxGeometry x="710" y="90" width="220" height="80" as="geometry" />
        </mxCell>
        <mxCell id="zmcDTXjt6zu2heIcuXkd-7" value="SynReqMessage" style="swimlane;fontStyle=1;align=center;verticalAlign=top;childLayout=stackLayout;horizontal=1;startSize=26;horizontalStack=0;resizeParent=1;resizeParentMax=0;resizeLast=0;collapsible=1;marginBottom=0;whiteSpace=wrap;html=1;" vertex="1" parent="1">
          <mxGeometry x="555" y="265" width="250" height="164" as="geometry" />
        </mxCell>
        <mxCell id="zmcDTXjt6zu2heIcuXkd-8" value="+ messageType: MessageType" style="text;strokeColor=none;fillColor=none;align=left;verticalAlign=top;spacingLeft=4;spacingRight=4;overflow=hidden;rotatable=0;points=[[0,0.5],[1,0.5]];portConstraint=eastwest;whiteSpace=wrap;html=1;" vertex="1" parent="zmcDTXjt6zu2heIcuXkd-7">
          <mxGeometry y="26" width="250" height="26" as="geometry" />
        </mxCell>
        <mxCell id="zmcDTXjt6zu2heIcuXkd-12" value="+ content: GenericContent" style="text;strokeColor=none;fillColor=none;align=left;verticalAlign=top;spacingLeft=4;spacingRight=4;overflow=hidden;rotatable=0;points=[[0,0.5],[1,0.5]];portConstraint=eastwest;whiteSpace=wrap;html=1;" vertex="1" parent="zmcDTXjt6zu2heIcuXkd-7">
          <mxGeometry y="52" width="250" height="26" as="geometry" />
        </mxCell>
        <mxCell id="zmcDTXjt6zu2heIcuXkd-13" value="+ data: Data" style="text;strokeColor=none;fillColor=none;align=left;verticalAlign=top;spacingLeft=4;spacingRight=4;overflow=hidden;rotatable=0;points=[[0,0.5],[1,0.5]];portConstraint=eastwest;whiteSpace=wrap;html=1;" vertex="1" parent="zmcDTXjt6zu2heIcuXkd-7">
          <mxGeometry y="78" width="250" height="26" as="geometry" />
        </mxCell>
        <mxCell id="zmcDTXjt6zu2heIcuXkd-9" value="" style="line;strokeWidth=1;fillColor=none;align=left;verticalAlign=middle;spacingTop=-1;spacingLeft=3;spacingRight=3;rotatable=0;labelPosition=right;points=[];portConstraint=eastwest;strokeColor=inherit;" vertex="1" parent="zmcDTXjt6zu2heIcuXkd-7">
          <mxGeometry y="104" width="250" height="8" as="geometry" />
        </mxCell>
        <mxCell id="zmcDTXjt6zu2heIcuXkd-10" value="+ GetContent(): GenericContent" style="text;strokeColor=none;fillColor=none;align=left;verticalAlign=top;spacingLeft=4;spacingRight=4;overflow=hidden;rotatable=0;points=[[0,0.5],[1,0.5]];portConstraint=eastwest;whiteSpace=wrap;html=1;" vertex="1" parent="zmcDTXjt6zu2heIcuXkd-7">
          <mxGeometry y="112" width="250" height="26" as="geometry" />
        </mxCell>
        <mxCell id="zmcDTXjt6zu2heIcuXkd-14" value="+ GetMessageType(): MessageType" style="text;strokeColor=none;fillColor=none;align=left;verticalAlign=top;spacingLeft=4;spacingRight=4;overflow=hidden;rotatable=0;points=[[0,0.5],[1,0.5]];portConstraint=eastwest;whiteSpace=wrap;html=1;" vertex="1" parent="zmcDTXjt6zu2heIcuXkd-7">
          <mxGeometry y="138" width="250" height="26" as="geometry" />
        </mxCell>
        <mxCell id="zmcDTXjt6zu2heIcuXkd-15" value="ElectReqMessage" style="swimlane;fontStyle=1;align=center;verticalAlign=top;childLayout=stackLayout;horizontal=1;startSize=26;horizontalStack=0;resizeParent=1;resizeParentMax=0;resizeLast=0;collapsible=1;marginBottom=0;whiteSpace=wrap;html=1;" vertex="1" parent="1">
          <mxGeometry x="290" y="265" width="250" height="138" as="geometry" />
        </mxCell>
        <mxCell id="zmcDTXjt6zu2heIcuXkd-16" value="+ messageType: MessageType" style="text;strokeColor=none;fillColor=none;align=left;verticalAlign=top;spacingLeft=4;spacingRight=4;overflow=hidden;rotatable=0;points=[[0,0.5],[1,0.5]];portConstraint=eastwest;whiteSpace=wrap;html=1;" vertex="1" parent="zmcDTXjt6zu2heIcuXkd-15">
          <mxGeometry y="26" width="250" height="26" as="geometry" />
        </mxCell>
        <mxCell id="zmcDTXjt6zu2heIcuXkd-17" value="+ content: GenericContent" style="text;strokeColor=none;fillColor=none;align=left;verticalAlign=top;spacingLeft=4;spacingRight=4;overflow=hidden;rotatable=0;points=[[0,0.5],[1,0.5]];portConstraint=eastwest;whiteSpace=wrap;html=1;" vertex="1" parent="zmcDTXjt6zu2heIcuXkd-15">
          <mxGeometry y="52" width="250" height="26" as="geometry" />
        </mxCell>
        <mxCell id="zmcDTXjt6zu2heIcuXkd-19" value="" style="line;strokeWidth=1;fillColor=none;align=left;verticalAlign=middle;spacingTop=-1;spacingLeft=3;spacingRight=3;rotatable=0;labelPosition=right;points=[];portConstraint=eastwest;strokeColor=inherit;" vertex="1" parent="zmcDTXjt6zu2heIcuXkd-15">
          <mxGeometry y="78" width="250" height="8" as="geometry" />
        </mxCell>
        <mxCell id="zmcDTXjt6zu2heIcuXkd-20" value="+ GetContent(): GenericContent" style="text;strokeColor=none;fillColor=none;align=left;verticalAlign=top;spacingLeft=4;spacingRight=4;overflow=hidden;rotatable=0;points=[[0,0.5],[1,0.5]];portConstraint=eastwest;whiteSpace=wrap;html=1;" vertex="1" parent="zmcDTXjt6zu2heIcuXkd-15">
          <mxGeometry y="86" width="250" height="26" as="geometry" />
        </mxCell>
        <mxCell id="zmcDTXjt6zu2heIcuXkd-21" value="+ GetMessageType(): MessageType" style="text;strokeColor=none;fillColor=none;align=left;verticalAlign=top;spacingLeft=4;spacingRight=4;overflow=hidden;rotatable=0;points=[[0,0.5],[1,0.5]];portConstraint=eastwest;whiteSpace=wrap;html=1;" vertex="1" parent="zmcDTXjt6zu2heIcuXkd-15">
          <mxGeometry y="112" width="250" height="26" as="geometry" />
        </mxCell>
        <mxCell id="zmcDTXjt6zu2heIcuXkd-22" value="ElectRepMessage" style="swimlane;fontStyle=1;align=center;verticalAlign=top;childLayout=stackLayout;horizontal=1;startSize=26;horizontalStack=0;resizeParent=1;resizeParentMax=0;resizeLast=0;collapsible=1;marginBottom=0;whiteSpace=wrap;html=1;" vertex="1" parent="1">
          <mxGeometry x="20" y="265" width="250" height="138" as="geometry" />
        </mxCell>
        <mxCell id="zmcDTXjt6zu2heIcuXkd-23" value="+ messageType: MessageType" style="text;strokeColor=none;fillColor=none;align=left;verticalAlign=top;spacingLeft=4;spacingRight=4;overflow=hidden;rotatable=0;points=[[0,0.5],[1,0.5]];portConstraint=eastwest;whiteSpace=wrap;html=1;" vertex="1" parent="zmcDTXjt6zu2heIcuXkd-22">
          <mxGeometry y="26" width="250" height="26" as="geometry" />
        </mxCell>
        <mxCell id="zmcDTXjt6zu2heIcuXkd-24" value="+ content: GenericContent" style="text;strokeColor=none;fillColor=none;align=left;verticalAlign=top;spacingLeft=4;spacingRight=4;overflow=hidden;rotatable=0;points=[[0,0.5],[1,0.5]];portConstraint=eastwest;whiteSpace=wrap;html=1;" vertex="1" parent="zmcDTXjt6zu2heIcuXkd-22">
          <mxGeometry y="52" width="250" height="26" as="geometry" />
        </mxCell>
        <mxCell id="zmcDTXjt6zu2heIcuXkd-25" value="" style="line;strokeWidth=1;fillColor=none;align=left;verticalAlign=middle;spacingTop=-1;spacingLeft=3;spacingRight=3;rotatable=0;labelPosition=right;points=[];portConstraint=eastwest;strokeColor=inherit;" vertex="1" parent="zmcDTXjt6zu2heIcuXkd-22">
          <mxGeometry y="78" width="250" height="8" as="geometry" />
        </mxCell>
        <mxCell id="zmcDTXjt6zu2heIcuXkd-26" value="+ GetContent(): GenericContent" style="text;strokeColor=none;fillColor=none;align=left;verticalAlign=top;spacingLeft=4;spacingRight=4;overflow=hidden;rotatable=0;points=[[0,0.5],[1,0.5]];portConstraint=eastwest;whiteSpace=wrap;html=1;" vertex="1" parent="zmcDTXjt6zu2heIcuXkd-22">
          <mxGeometry y="86" width="250" height="26" as="geometry" />
        </mxCell>
        <mxCell id="zmcDTXjt6zu2heIcuXkd-27" value="+ GetMessageType(): MessageType" style="text;strokeColor=none;fillColor=none;align=left;verticalAlign=top;spacingLeft=4;spacingRight=4;overflow=hidden;rotatable=0;points=[[0,0.5],[1,0.5]];portConstraint=eastwest;whiteSpace=wrap;html=1;" vertex="1" parent="zmcDTXjt6zu2heIcuXkd-22">
          <mxGeometry y="112" width="250" height="26" as="geometry" />
        </mxCell>
        <mxCell id="zmcDTXjt6zu2heIcuXkd-28" value="AncMessage" style="swimlane;fontStyle=1;align=center;verticalAlign=top;childLayout=stackLayout;horizontal=1;startSize=26;horizontalStack=0;resizeParent=1;resizeParentMax=0;resizeLast=0;collapsible=1;marginBottom=0;whiteSpace=wrap;html=1;" vertex="1" parent="1">
          <mxGeometry x="820" y="265" width="250" height="138" as="geometry" />
        </mxCell>
        <mxCell id="zmcDTXjt6zu2heIcuXkd-29" value="+ messageType: MessageType" style="text;strokeColor=none;fillColor=none;align=left;verticalAlign=top;spacingLeft=4;spacingRight=4;overflow=hidden;rotatable=0;points=[[0,0.5],[1,0.5]];portConstraint=eastwest;whiteSpace=wrap;html=1;" vertex="1" parent="zmcDTXjt6zu2heIcuXkd-28">
          <mxGeometry y="26" width="250" height="26" as="geometry" />
        </mxCell>
        <mxCell id="zmcDTXjt6zu2heIcuXkd-30" value="+ content: GenericContent" style="text;strokeColor=none;fillColor=none;align=left;verticalAlign=top;spacingLeft=4;spacingRight=4;overflow=hidden;rotatable=0;points=[[0,0.5],[1,0.5]];portConstraint=eastwest;whiteSpace=wrap;html=1;" vertex="1" parent="zmcDTXjt6zu2heIcuXkd-28">
          <mxGeometry y="52" width="250" height="26" as="geometry" />
        </mxCell>
        <mxCell id="zmcDTXjt6zu2heIcuXkd-31" value="" style="line;strokeWidth=1;fillColor=none;align=left;verticalAlign=middle;spacingTop=-1;spacingLeft=3;spacingRight=3;rotatable=0;labelPosition=right;points=[];portConstraint=eastwest;strokeColor=inherit;" vertex="1" parent="zmcDTXjt6zu2heIcuXkd-28">
          <mxGeometry y="78" width="250" height="8" as="geometry" />
        </mxCell>
        <mxCell id="zmcDTXjt6zu2heIcuXkd-32" value="+ GetContent(): GenericContent" style="text;strokeColor=none;fillColor=none;align=left;verticalAlign=top;spacingLeft=4;spacingRight=4;overflow=hidden;rotatable=0;points=[[0,0.5],[1,0.5]];portConstraint=eastwest;whiteSpace=wrap;html=1;" vertex="1" parent="zmcDTXjt6zu2heIcuXkd-28">
          <mxGeometry y="86" width="250" height="26" as="geometry" />
        </mxCell>
        <mxCell id="zmcDTXjt6zu2heIcuXkd-33" value="+ GetMessageType(): MessageType" style="text;strokeColor=none;fillColor=none;align=left;verticalAlign=top;spacingLeft=4;spacingRight=4;overflow=hidden;rotatable=0;points=[[0,0.5],[1,0.5]];portConstraint=eastwest;whiteSpace=wrap;html=1;" vertex="1" parent="zmcDTXjt6zu2heIcuXkd-28">
          <mxGeometry y="112" width="250" height="26" as="geometry" />
        </mxCell>
        <mxCell id="zmcDTXjt6zu2heIcuXkd-34" value="HeartbeatReq" style="swimlane;fontStyle=1;align=center;verticalAlign=top;childLayout=stackLayout;horizontal=1;startSize=26;horizontalStack=0;resizeParent=1;resizeParentMax=0;resizeLast=0;collapsible=1;marginBottom=0;whiteSpace=wrap;html=1;" vertex="1" parent="1">
          <mxGeometry x="1090" y="265" width="250" height="190" as="geometry" />
        </mxCell>
        <mxCell id="zmcDTXjt6zu2heIcuXkd-35" value="+ messageType: MessageType" style="text;strokeColor=none;fillColor=none;align=left;verticalAlign=top;spacingLeft=4;spacingRight=4;overflow=hidden;rotatable=0;points=[[0,0.5],[1,0.5]];portConstraint=eastwest;whiteSpace=wrap;html=1;" vertex="1" parent="zmcDTXjt6zu2heIcuXkd-34">
          <mxGeometry y="26" width="250" height="26" as="geometry" />
        </mxCell>
        <mxCell id="zmcDTXjt6zu2heIcuXkd-36" value="+ content: GenericContent" style="text;strokeColor=none;fillColor=none;align=left;verticalAlign=top;spacingLeft=4;spacingRight=4;overflow=hidden;rotatable=0;points=[[0,0.5],[1,0.5]];portConstraint=eastwest;whiteSpace=wrap;html=1;" vertex="1" parent="zmcDTXjt6zu2heIcuXkd-34">
          <mxGeometry y="52" width="250" height="26" as="geometry" />
        </mxCell>
        <mxCell id="zmcDTXjt6zu2heIcuXkd-37" value="" style="line;strokeWidth=1;fillColor=none;align=left;verticalAlign=middle;spacingTop=-1;spacingLeft=3;spacingRight=3;rotatable=0;labelPosition=right;points=[];portConstraint=eastwest;strokeColor=inherit;" vertex="1" parent="zmcDTXjt6zu2heIcuXkd-34">
          <mxGeometry y="78" width="250" height="8" as="geometry" />
        </mxCell>
        <mxCell id="zmcDTXjt6zu2heIcuXkd-38" value="+ GetContent(): GenericContent" style="text;strokeColor=none;fillColor=none;align=left;verticalAlign=top;spacingLeft=4;spacingRight=4;overflow=hidden;rotatable=0;points=[[0,0.5],[1,0.5]];portConstraint=eastwest;whiteSpace=wrap;html=1;" vertex="1" parent="zmcDTXjt6zu2heIcuXkd-34">
          <mxGeometry y="86" width="250" height="26" as="geometry" />
        </mxCell>
        <mxCell id="zmcDTXjt6zu2heIcuXkd-39" value="+ GetMessageType(): MessageType" style="text;strokeColor=none;fillColor=none;align=left;verticalAlign=top;spacingLeft=4;spacingRight=4;overflow=hidden;rotatable=0;points=[[0,0.5],[1,0.5]];portConstraint=eastwest;whiteSpace=wrap;html=1;" vertex="1" parent="zmcDTXjt6zu2heIcuXkd-34">
          <mxGeometry y="112" width="250" height="26" as="geometry" />
        </mxCell>
        <mxCell id="zmcDTXjt6zu2heIcuXkd-40" value="+ GetBeater(): int" style="text;strokeColor=none;fillColor=none;align=left;verticalAlign=top;spacingLeft=4;spacingRight=4;overflow=hidden;rotatable=0;points=[[0,0.5],[1,0.5]];portConstraint=eastwest;whiteSpace=wrap;html=1;" vertex="1" parent="zmcDTXjt6zu2heIcuXkd-34">
          <mxGeometry y="138" width="250" height="26" as="geometry" />
        </mxCell>
        <mxCell id="zmcDTXjt6zu2heIcuXkd-41" value="+ GetAsker(): int" style="text;strokeColor=none;fillColor=none;align=left;verticalAlign=top;spacingLeft=4;spacingRight=4;overflow=hidden;rotatable=0;points=[[0,0.5],[1,0.5]];portConstraint=eastwest;whiteSpace=wrap;html=1;" vertex="1" parent="zmcDTXjt6zu2heIcuXkd-34">
          <mxGeometry y="164" width="250" height="26" as="geometry" />
        </mxCell>
        <mxCell id="zmcDTXjt6zu2heIcuXkd-42" value="HeartbeatRep" style="swimlane;fontStyle=1;align=center;verticalAlign=top;childLayout=stackLayout;horizontal=1;startSize=26;horizontalStack=0;resizeParent=1;resizeParentMax=0;resizeLast=0;collapsible=1;marginBottom=0;whiteSpace=wrap;html=1;" vertex="1" parent="1">
          <mxGeometry x="1360" y="265" width="250" height="190" as="geometry" />
        </mxCell>
        <mxCell id="zmcDTXjt6zu2heIcuXkd-43" value="+ messageType: MessageType" style="text;strokeColor=none;fillColor=none;align=left;verticalAlign=top;spacingLeft=4;spacingRight=4;overflow=hidden;rotatable=0;points=[[0,0.5],[1,0.5]];portConstraint=eastwest;whiteSpace=wrap;html=1;" vertex="1" parent="zmcDTXjt6zu2heIcuXkd-42">
          <mxGeometry y="26" width="250" height="26" as="geometry" />
        </mxCell>
        <mxCell id="zmcDTXjt6zu2heIcuXkd-44" value="+ content: GenericContent" style="text;strokeColor=none;fillColor=none;align=left;verticalAlign=top;spacingLeft=4;spacingRight=4;overflow=hidden;rotatable=0;points=[[0,0.5],[1,0.5]];portConstraint=eastwest;whiteSpace=wrap;html=1;" vertex="1" parent="zmcDTXjt6zu2heIcuXkd-42">
          <mxGeometry y="52" width="250" height="26" as="geometry" />
        </mxCell>
        <mxCell id="zmcDTXjt6zu2heIcuXkd-45" value="" style="line;strokeWidth=1;fillColor=none;align=left;verticalAlign=middle;spacingTop=-1;spacingLeft=3;spacingRight=3;rotatable=0;labelPosition=right;points=[];portConstraint=eastwest;strokeColor=inherit;" vertex="1" parent="zmcDTXjt6zu2heIcuXkd-42">
          <mxGeometry y="78" width="250" height="8" as="geometry" />
        </mxCell>
        <mxCell id="zmcDTXjt6zu2heIcuXkd-46" value="+ GetContent(): GenericContent" style="text;strokeColor=none;fillColor=none;align=left;verticalAlign=top;spacingLeft=4;spacingRight=4;overflow=hidden;rotatable=0;points=[[0,0.5],[1,0.5]];portConstraint=eastwest;whiteSpace=wrap;html=1;" vertex="1" parent="zmcDTXjt6zu2heIcuXkd-42">
          <mxGeometry y="86" width="250" height="26" as="geometry" />
        </mxCell>
        <mxCell id="zmcDTXjt6zu2heIcuXkd-47" value="+ GetMessageType(): MessageType" style="text;strokeColor=none;fillColor=none;align=left;verticalAlign=top;spacingLeft=4;spacingRight=4;overflow=hidden;rotatable=0;points=[[0,0.5],[1,0.5]];portConstraint=eastwest;whiteSpace=wrap;html=1;" vertex="1" parent="zmcDTXjt6zu2heIcuXkd-42">
          <mxGeometry y="112" width="250" height="26" as="geometry" />
        </mxCell>
        <mxCell id="zmcDTXjt6zu2heIcuXkd-48" value="+ GetBeater(): int" style="text;strokeColor=none;fillColor=none;align=left;verticalAlign=top;spacingLeft=4;spacingRight=4;overflow=hidden;rotatable=0;points=[[0,0.5],[1,0.5]];portConstraint=eastwest;whiteSpace=wrap;html=1;" vertex="1" parent="zmcDTXjt6zu2heIcuXkd-42">
          <mxGeometry y="138" width="250" height="26" as="geometry" />
        </mxCell>
        <mxCell id="zmcDTXjt6zu2heIcuXkd-49" value="+ GetAsker(): int" style="text;strokeColor=none;fillColor=none;align=left;verticalAlign=top;spacingLeft=4;spacingRight=4;overflow=hidden;rotatable=0;points=[[0,0.5],[1,0.5]];portConstraint=eastwest;whiteSpace=wrap;html=1;" vertex="1" parent="zmcDTXjt6zu2heIcuXkd-42">
          <mxGeometry y="164" width="250" height="26" as="geometry" />
        </mxCell>
        <mxCell id="zmcDTXjt6zu2heIcuXkd-50" value="&lt;p style=&quot;margin:0px;margin-top:4px;text-align:center;&quot;&gt;&lt;i&gt;&amp;lt;&amp;lt;Interface&amp;gt;&amp;gt;&lt;/i&gt;&lt;br&gt;&lt;b&gt;Heartbeat&lt;/b&gt;&lt;/p&gt;&lt;hr size=&quot;1&quot;&gt;&lt;p style=&quot;margin:0px;margin-left:4px;&quot;&gt;&lt;/p&gt;&lt;p style=&quot;margin:0px;margin-left:4px;&quot;&gt;+ GetContent(): GenericContent&lt;br&gt;+ GetMessageType() MessageType&lt;/p&gt;" style="verticalAlign=top;align=left;overflow=fill;fontSize=12;fontFamily=Helvetica;html=1;whiteSpace=wrap;" vertex="1" parent="1">
          <mxGeometry x="1250" y="90" width="220" height="80" as="geometry" />
        </mxCell>
        <mxCell id="zmcDTXjt6zu2heIcuXkd-51" value="" style="endArrow=block;dashed=1;endFill=0;endSize=12;html=1;rounded=0;entryX=0.5;entryY=1;entryDx=0;entryDy=0;exitX=0.5;exitY=0;exitDx=0;exitDy=0;" edge="1" parent="1" source="zmcDTXjt6zu2heIcuXkd-22" target="zmcDTXjt6zu2heIcuXkd-6">
          <mxGeometry width="160" relative="1" as="geometry">
            <mxPoint x="790" y="305" as="sourcePoint" />
            <mxPoint x="950" y="305" as="targetPoint" />
            <Array as="points">
              <mxPoint x="145" y="225" />
              <mxPoint x="820" y="225" />
            </Array>
          </mxGeometry>
        </mxCell>
        <mxCell id="zmcDTXjt6zu2heIcuXkd-52" value="" style="endArrow=block;dashed=1;endFill=0;endSize=12;html=1;rounded=0;exitX=0.5;exitY=0;exitDx=0;exitDy=0;entryX=0.5;entryY=1;entryDx=0;entryDy=0;" edge="1" parent="1" source="zmcDTXjt6zu2heIcuXkd-15" target="zmcDTXjt6zu2heIcuXkd-6">
          <mxGeometry width="160" relative="1" as="geometry">
            <mxPoint x="155" y="275" as="sourcePoint" />
            <mxPoint x="820" y="175" as="targetPoint" />
            <Array as="points">
              <mxPoint x="415" y="225" />
              <mxPoint x="820" y="225" />
            </Array>
          </mxGeometry>
        </mxCell>
        <mxCell id="zmcDTXjt6zu2heIcuXkd-53" value="" style="endArrow=block;dashed=1;endFill=0;endSize=12;html=1;rounded=0;exitX=0.5;exitY=0;exitDx=0;exitDy=0;entryX=0.5;entryY=1;entryDx=0;entryDy=0;" edge="1" parent="1" source="zmcDTXjt6zu2heIcuXkd-7" target="zmcDTXjt6zu2heIcuXkd-6">
          <mxGeometry width="160" relative="1" as="geometry">
            <mxPoint x="165" y="285" as="sourcePoint" />
            <mxPoint x="840" y="175" as="targetPoint" />
            <Array as="points">
              <mxPoint x="680" y="225" />
              <mxPoint x="820" y="225" />
            </Array>
          </mxGeometry>
        </mxCell>
        <mxCell id="zmcDTXjt6zu2heIcuXkd-54" value="" style="endArrow=block;dashed=1;endFill=0;endSize=12;html=1;rounded=0;exitX=0.5;exitY=0;exitDx=0;exitDy=0;entryX=0.5;entryY=1;entryDx=0;entryDy=0;" edge="1" parent="1" source="zmcDTXjt6zu2heIcuXkd-28" target="zmcDTXjt6zu2heIcuXkd-6">
          <mxGeometry width="160" relative="1" as="geometry">
            <mxPoint x="175" y="295" as="sourcePoint" />
            <mxPoint x="820" y="175" as="targetPoint" />
            <Array as="points">
              <mxPoint x="945" y="225" />
              <mxPoint x="820" y="225" />
            </Array>
          </mxGeometry>
        </mxCell>
        <mxCell id="zmcDTXjt6zu2heIcuXkd-55" value="" style="endArrow=block;dashed=1;endFill=0;endSize=12;html=1;rounded=0;entryX=0.5;entryY=1;entryDx=0;entryDy=0;exitX=0.5;exitY=0;exitDx=0;exitDy=0;" edge="1" parent="1" source="zmcDTXjt6zu2heIcuXkd-34" target="zmcDTXjt6zu2heIcuXkd-6">
          <mxGeometry width="160" relative="1" as="geometry">
            <mxPoint x="1240" y="255" as="sourcePoint" />
            <mxPoint x="830" y="185" as="targetPoint" />
            <Array as="points">
              <mxPoint x="1215" y="225" />
              <mxPoint x="820" y="225" />
            </Array>
          </mxGeometry>
        </mxCell>
        <mxCell id="zmcDTXjt6zu2heIcuXkd-56" value="" style="endArrow=block;dashed=1;endFill=0;endSize=12;html=1;rounded=0;entryX=0.5;entryY=1;entryDx=0;entryDy=0;exitX=0.5;exitY=0;exitDx=0;exitDy=0;" edge="1" parent="1" source="zmcDTXjt6zu2heIcuXkd-42" target="zmcDTXjt6zu2heIcuXkd-6">
          <mxGeometry width="160" relative="1" as="geometry">
            <mxPoint x="1225" y="275" as="sourcePoint" />
            <mxPoint x="830" y="180" as="targetPoint" />
            <Array as="points">
              <mxPoint x="1485" y="225" />
              <mxPoint x="820" y="225" />
            </Array>
          </mxGeometry>
        </mxCell>
        <mxCell id="zmcDTXjt6zu2heIcuXkd-57" value="" style="endArrow=block;dashed=1;endFill=0;endSize=12;html=1;rounded=0;entryX=0.5;entryY=1;entryDx=0;entryDy=0;exitX=0.5;exitY=0;exitDx=0;exitDy=0;" edge="1" parent="1" source="zmcDTXjt6zu2heIcuXkd-34" target="zmcDTXjt6zu2heIcuXkd-50">
          <mxGeometry width="160" relative="1" as="geometry">
            <mxPoint x="1735" y="280" as="sourcePoint" />
            <mxPoint x="1070" y="185" as="targetPoint" />
            <Array as="points">
              <mxPoint x="1215" y="215" />
              <mxPoint x="1360" y="215" />
            </Array>
          </mxGeometry>
        </mxCell>
        <mxCell id="zmcDTXjt6zu2heIcuXkd-58" value="" style="endArrow=block;dashed=1;endFill=0;endSize=12;html=1;rounded=0;entryX=0.5;entryY=1;entryDx=0;entryDy=0;exitX=0.5;exitY=0;exitDx=0;exitDy=0;" edge="1" parent="1" source="zmcDTXjt6zu2heIcuXkd-42" target="zmcDTXjt6zu2heIcuXkd-50">
          <mxGeometry width="160" relative="1" as="geometry">
            <mxPoint x="1225" y="275" as="sourcePoint" />
            <mxPoint x="1370" y="180" as="targetPoint" />
            <Array as="points">
              <mxPoint x="1485" y="215" />
              <mxPoint x="1360" y="215" />
            </Array>
          </mxGeometry>
        </mxCell>
      </root>
    </mxGraphModel>
  </diagram>
</mxfile>
